<svg width="1200" height="600" viewBox="0 0 1200 600" xmlns="http://www.w3.org/2000/svg" preserveAspectRatio="xMidYMid meet">
  <defs>
    <linearGradient id="g" x1="0" x2="1">
      <stop offset="0%" stop-color="#e6f4ff" />
      <stop offset="100%" stop-color="#ffffff" />
    </linearGradient>
  </defs>
  <rect width="1200" height="600" fill="url(#g)" />
  <g transform="translate(80,60)">
    <rect width="440" height="300" rx="10" fill="#fff" stroke="#e6eef8" />
    <rect x="20" y="20" width="400" height="40" rx="6" fill="#f3f9ff" />
    <rect x="20" y="80" width="360" height="12" rx="6" fill="#eaf5ff" />
    <rect x="20" y="110" width="360" height="12" rx="6" fill="#eaf5ff" />
    <rect x="20" y="140" width="220" height="12" rx="6" fill="#eaf5ff" />

    <rect x="500" y="20" width="520" height="360" rx="10" fill="#fff" stroke="#e6eef8" />
    <rect x="520" y="40" width="480" height="18" rx="6" fill="#f8fbff" />
    <rect x="520" y="72" width="440" height="160" rx="6" fill="#f3f9ff" />
    <g transform="translate(520,72)">
      <rect x="12" y="12" width="120" height="12" rx="6" fill="#d6ecff" />
      <rect x="12" y="36" width="240" height="12" rx="6" fill="#d6ecff" />
      <rect x="12" y="60" width="80" height="12" rx="6" fill="#d6ecff" />
    </g>
  </g>
</svg>
